<svg xmlns="http://www.w3.org/2000/svg" viewBox="0 0 713 255" fill="currentColor" fill-rule="evenodd" role="img" aria-label="GRLKID"><path d="M75.50,18.49 72.50,18.92 68.50,19.11 65.50,19.92 63.50,20.06 60.50,20.93 58.50,21.24 57.50,21.76 55.50,22.19 54.50,22.78 52.50,23.32 51.50,23.95 50.50,24.17 49.50,24.89 48.50,25.16 47.50,25.90 46.50,26.13 45.50,26.95 44.50,27.28 42.50,28.79 41.50,29.22 39.50,30.91 37.50,32.22 33.90,35.50 28.17,41.50 26.93,43.50 26.07,44.50 24.32,47.50 23.98,48.50 23.35,49.50 22.80,51.50 22.21,52.50 21.24,56.50 20.74,60.50 20.17,62.50 19.79,67.50 19.21,70.50 19.01,77.50 18.39,88.50 18.25,96.50 18.24,162.50 18.39,171.50 18.99,181.50 19.11,187.50 19.32,189.50 19.99,192.50 20.15,195.50 20.89,197.50 21.11,199.50 21.89,201.50 22.35,203.50 22.99,204.50 23.10,205.50 23.77,206.50 24.07,207.50 24.72,208.50 26.09,211.50 26.91,212.50 27.34,213.50 29.41,216.50 33.50,221.13 37.50,224.88 41.50,227.79 44.50,229.75 45.50,230.02 46.50,230.89 47.50,231.17 48.50,231.89 49.50,232.18 50.50,232.87 51.50,233.05 52.50,233.72 55.50,234.87 56.50,234.97 58.50,235.82 60.50,236.02 62.50,236.74 63.50,236.91 65.50,237.00 69.50,237.63 72.50,237.80 78.50,237.61 80.50,237.12 83.50,236.92 85.50,236.16 87.50,235.90 89.50,235.05 90.50,234.85 91.50,234.17 92.50,233.94 93.50,233.18 94.50,232.87 96.50,231.70 100.50,228.73 104.77,224.50 107.66,220.50 108.50,219.02 109.50,218.74 110.03,219.50 110.20,220.50 110.72,221.50 111.30,223.50 111.85,224.50 112.35,226.50 112.98,227.50 113.06,228.50 113.96,230.50 114.12,231.50 114.58,232.50 115.50,233.04 149.50,233.01 150.02,232.50 150.02,121.50 149.50,120.34 86.50,120.31 84.39,120.50 84.01,121.50 84.02,151.50 84.50,151.98 94.50,151.98 95.29,152.50 95.47,153.50 95.43,179.50 94.99,190.50 94.21,193.50 93.97,195.50 92.60,198.50 91.92,199.50 90.50,200.95 88.50,202.00 84.50,202.54 80.50,201.96 78.63,200.50 77.50,199.22 76.99,198.50 76.73,197.50 76.14,196.50 75.79,193.50 75.08,190.50 74.99,187.50 74.97,70.50 75.05,65.50 75.82,61.50 75.98,59.50 76.30,58.50 77.34,56.50 78.50,55.11 80.50,54.00 83.50,53.55 85.50,53.61 88.50,54.16 90.33,55.50 91.91,57.50 92.06,58.50 92.85,60.50 93.53,70.50 93.74,77.50 93.71,98.50 93.82,99.50 94.50,99.99 149.50,99.96 149.96,99.50 150.02,98.50 150.00,82.50 149.86,77.50 149.06,71.50 148.86,66.50 148.09,63.50 147.84,60.50 147.06,58.50 146.89,56.50 146.09,54.50 145.59,52.50 145.03,51.50 144.86,50.50 144.20,49.50 143.96,48.50 141.77,44.50 137.90,39.50 132.50,34.13 125.50,29.15 124.50,28.76 122.50,27.31 121.50,27.00 120.50,26.18 119.50,26.01 118.50,25.27 117.50,25.00 116.50,24.39 114.50,23.69 113.50,23.15 112.50,23.00 110.50,22.11 108.50,21.70 107.50,21.22 105.50,20.97 103.50,20.22 99.50,19.79 97.50,19.19 92.50,18.91 89.50,18.41 80.50,18.20ZM155.50,23.47 155.50,232.57 156.50,233.11 210.50,233.08 211.50,233.03 211.99,232.50 211.95,166.50 212.50,165.24 213.82,167.50 214.14,169.50 214.77,170.50 215.15,172.50 215.78,173.50 216.27,175.50 216.89,176.50 217.30,178.50 217.86,179.50 218.29,181.50 218.92,182.50 219.29,184.50 219.90,185.50 220.33,187.50 220.98,188.50 221.04,189.50 221.99,191.50 222.06,192.50 222.39,193.50 222.99,194.50 223.10,195.50 223.99,197.50 224.11,198.50 225.01,200.50 225.12,201.50 226.00,203.50 226.10,204.50 226.70,205.50 227.15,207.50 227.77,208.50 228.15,210.50 228.77,211.50 229.22,213.50 229.79,214.50 230.35,216.50 230.90,217.50 231.28,219.50 231.84,220.50 232.33,222.50 232.94,223.50 233.28,225.50 233.82,226.50 234.28,228.50 234.94,229.50 235.06,230.50 235.96,232.50 236.50,233.02 373.50,233.05 374.50,233.01 375.01,232.50 375.00,192.50 374.50,191.69 341.50,191.63 340.28,190.50 340.43,23.50 339.50,22.79 284.50,22.87 283.99,23.50 284.01,48.50 283.91,49.50 283.50,50.05 282.36,48.50 280.97,45.50 277.57,40.50 274.90,37.50 271.50,34.29 270.50,33.80 268.50,32.19 267.50,31.79 266.50,31.05 265.50,30.77 264.50,30.08 263.50,29.78 262.50,29.12 261.50,29.00 259.50,28.04 258.50,27.90 257.50,27.31 255.50,26.97 253.50,26.27 250.50,25.89 248.50,25.21 244.50,24.85 243.50,24.69 242.50,24.28 236.50,23.97 230.50,23.27 214.50,22.94 208.50,22.63 156.50,22.61ZM380.50,22.80 379.89,23.50 379.88,232.50 380.50,233.04 382.50,233.05 435.50,233.02 436.07,232.50 436.00,147.50 436.12,145.50 436.50,144.42 437.50,145.66 437.85,146.50 438.34,149.50 439.01,151.50 439.05,152.50 439.32,153.50 439.85,154.50 440.14,156.50 440.95,158.50 441.12,160.50 441.88,162.50 442.15,164.50 442.95,166.50 443.15,168.50 443.90,170.50 444.18,172.50 444.98,174.50 445.20,176.50 445.77,177.50 446.20,180.50 446.98,182.50 447.23,184.50 447.74,185.50 448.07,187.50 448.82,189.50 449.33,192.50 450.03,194.50 450.34,196.50 450.85,197.50 451.15,199.50 451.89,201.50 452.14,203.50 452.88,205.50 453.11,207.50 453.93,209.50 454.21,211.50 454.73,212.50 455.19,215.50 455.96,217.50 456.25,219.50 456.98,221.50 457.24,223.50 457.96,225.50 458.27,227.50 459.01,229.50 459.26,231.50 459.79,232.50 460.50,233.04 559.50,232.95 559.95,232.50 559.97,231.50 559.97,23.50 559.50,22.92 558.50,22.77 462.50,22.90 461.97,23.50 461.09,25.50 461.01,26.50 460.18,28.50 459.82,30.50 459.25,31.50 458.88,33.50 458.32,34.50 457.92,36.50 457.10,38.50 456.71,40.50 456.15,41.50 455.77,43.50 455.22,44.50 454.94,46.50 454.38,47.50 453.95,49.50 453.07,51.50 452.98,52.50 452.11,54.50 451.80,56.50 451.22,57.50 450.75,59.50 450.24,60.50 449.84,62.50 449.33,63.50 448.98,65.50 447.13,70.50 446.70,72.50 446.18,73.50 445.90,75.50 445.28,76.50 444.93,78.50 444.08,80.50 443.97,81.50 443.14,83.50 442.73,85.50 442.15,86.50 441.77,88.50 441.23,89.50 440.94,91.50 440.08,93.50 439.98,94.50 439.10,96.50 439.02,97.50 438.15,99.50 437.83,101.50 437.50,102.19 436.50,103.07 436.22,102.50 436.01,100.50 436.07,23.50 435.50,22.80ZM565.50,22.78 564.92,23.50 564.89,232.50 565.50,233.03 639.50,233.04 652.50,232.88 659.50,232.05 662.50,231.93 664.50,231.57 665.50,231.17 668.50,230.78 669.50,230.29 672.50,229.63 673.50,229.08 674.50,228.92 680.50,225.92 681.50,225.07 682.50,224.67 683.50,223.90 686.50,221.13 688.86,218.50 689.98,216.50 690.82,215.50 691.10,214.50 691.82,213.50 692.02,212.50 692.66,211.50 693.07,209.50 693.63,208.50 694.10,205.50 694.67,203.50 695.16,196.50 695.72,192.50 695.94,189.50 696.05,90.50 695.84,71.50 695.17,65.50 694.78,58.50 693.98,55.50 693.78,53.50 693.22,52.50 692.81,50.50 692.15,49.50 691.92,48.50 691.25,47.50 690.92,46.50 690.18,45.50 689.90,44.50 688.98,43.50 687.77,41.50 683.24,36.50 680.50,34.06 676.50,31.41 671.50,29.04 670.50,28.84 669.50,28.15 667.50,27.67 666.50,27.10 664.50,26.74 663.50,26.26 660.50,25.93 658.50,25.25 654.50,24.91 651.50,24.21 645.50,23.93 640.50,23.35 636.50,23.11 614.50,22.83ZM212.41,58.50 213.50,58.19 214.50,58.22 222.50,59.05 224.50,59.94 226.50,61.21 227.82,62.50 228.26,63.50 228.99,64.50 230.01,68.50 230.03,71.50 230.61,78.50 230.82,86.50 229.90,111.50 229.07,113.50 227.82,115.50 226.50,116.89 223.50,118.66 219.50,120.00 212.50,120.11 211.96,119.50 211.97,59.50ZM621.68,58.50 622.50,58.01 624.50,58.09 632.50,59.12 633.50,59.72 634.50,60.06 636.50,61.78 637.92,63.50 638.16,64.50 638.79,65.50 639.00,66.50 639.57,72.50 639.92,86.50 639.85,171.50 638.90,186.50 638.20,188.50 637.99,190.50 637.06,192.50 636.38,193.50 633.50,195.83 632.50,196.03 630.50,196.95 622.50,197.71 621.50,197.10 621.10,196.50 621.10,59.50ZM502.16,59.50 502.50,58.90 503.50,59.31 503.61,60.50 503.48,177.50 503.63,179.50 503.50,182.50 502.50,182.87 501.98,181.50 501.86,180.50 501.01,178.50 500.95,177.50 500.63,176.50 500.08,175.50 499.97,174.50 499.08,172.50 498.80,170.50 498.26,169.50 497.82,167.50 496.99,165.50 496.93,164.50 496.66,163.50 496.09,162.50 495.72,160.50 495.16,159.50 494.85,157.50 494.24,156.50 493.86,154.50 492.06,149.50 491.68,147.50 491.11,146.50 490.79,144.50 489.97,142.50 489.87,141.50 489.31,140.50 488.93,138.50 488.02,136.50 487.93,135.50 487.16,133.50 486.80,131.50 486.18,130.50 485.81,128.50 485.24,127.50 484.90,125.50 484.02,123.50 483.63,121.50 483.04,120.50 482.61,117.50 482.99,115.50 483.87,113.50 484.00,112.50 484.92,110.50 484.99,109.50 485.90,107.50 486.03,106.50 486.61,105.50 487.10,103.50 487.69,102.50 488.06,100.50 488.97,98.50 489.10,97.50 489.76,96.50 490.17,94.50 490.79,93.50 491.14,91.50 491.79,90.50 492.22,88.50 492.82,87.50 492.97,86.50 493.87,84.50 494.27,82.50 494.92,81.50 495.01,80.50 496.90,75.50 496.99,74.50 497.93,72.50 498.04,71.50 498.93,69.50 499.00,68.50 499.94,66.50 500.07,65.50 500.71,64.50 501.11,62.50 501.72,61.50ZM283.27,115.50 283.50,115.28 283.72,115.50 284.03,116.50 284.02,210.50 283.50,211.56 282.03,209.50 281.94,208.50 281.28,207.50 280.72,205.50 280.09,204.50 279.87,203.50 279.32,202.50 278.65,200.50 278.03,199.50 277.88,198.50 277.26,197.50 276.72,195.50 276.03,194.50 275.83,193.50 275.21,192.50 274.68,190.50 274.02,189.50 273.90,188.50 273.26,187.50 272.69,185.50 272.07,184.50 271.87,183.50 271.24,182.50 270.68,180.50 270.01,179.50 269.89,178.50 269.30,177.50 268.72,175.50 268.05,174.50 267.83,173.50 267.23,172.50 266.67,170.50 266.04,169.50 265.84,168.50 265.16,167.50 264.97,166.50 263.99,164.50 263.86,163.50 263.24,162.50 262.57,160.50 261.99,159.50 261.81,158.50 261.17,157.50 260.94,156.50 259.98,154.50 259.85,153.50 259.15,152.50 258.59,150.50 258.02,149.50 257.83,148.50 257.16,147.50 256.95,146.50 256.09,144.50 256.50,143.92 257.50,143.13 258.50,142.91 259.50,142.09 260.50,141.77 261.50,140.97 263.50,139.90 265.50,138.28 266.50,137.81 271.21,133.50 273.50,131.12 276.62,127.50 278.57,124.50 279.01,123.50 279.84,122.50 280.21,121.50 280.93,120.50 281.14,119.50 281.88,118.50 282.03,117.50Z"/></svg>